<svg xmlns="http://www.w3.org/2000/svg" width="3387.80" height="970.90" viewBox="0 0 3387.80 970.90" role="img" aria-label="Daytlas"><title>Daytlas — Onest 550, optically spaced -0.015em, shaped and outlined</title><g fill="#172736" transform="translate(-69.000 719.300) scale(1 -1)"><path transform="translate(0 0)" d="M81.000244140625 0V707.2999877929688H339.7999267578125Q450.39990234375 707.2999877929688 526.6498107910156 664.2999267578125Q602.8997192382812 621.2998657226562 642.4996337890625 541.9498596191406Q682.0995483398438 462.599853515625 682.0995483398438 352.70001220703125Q682.0995483398438 244.400146484375 643.2996215820312 165.20013427734375Q604.4996948242188 86.0001220703125 528.3997802734375 43.00006103515625Q452.29986572265625 0 340.39990234375 0ZM196.1990966796875 105.09893798828125H336.7998046875Q417.10003662109375 105.09893798828125 467.30023193359375 136.799072265625Q517.5004272460938 168.49920654296875 541.5005493164062 224.14944458007812Q565.5006713867188 279.7996826171875 565.5006713867188 353Q565.5006713867188 424.2003173828125 542.0005493164062 480.50054931640625Q518.5004272460938 536.80078125 468.5502624511719 569.5009155273438Q418.60009765625 602.2010498046875 338.199951171875 602.2010498046875H196.1990966796875Z"/><path transform="translate(710 0)" d="M229.10028076171875 -6.5999755859375Q192.80029296875 -6.5999755859375 159.45028686523438 3.050018310546875Q126.10028076171875 12.70001220703125 99.9002685546875 32.350006103515625Q73.70025634765625 52 58.350250244140625 81.64999389648438Q43.000244140625 111.29998779296875 43.000244140625 150.89996337890625Q43.000244140625 200.3997802734375 62.20013427734375 232.29974365234375Q81.4000244140625 264.19970703125 114.04983520507812 281.5997314453125Q146.69964599609375 298.999755859375 189.24942016601562 305.9497985839844Q231.7991943359375 312.89984130859375 277.7989501953125 312.89984130859375H393.50054931640625Q393.50054931640625 350.10015869140625 382.0505065917969 377.70037841796875Q370.6004638671875 405.30059814453125 346.0503234863281 420.9507141113281Q321.50018310546875 436.600830078125 282.09991455078125 436.600830078125Q257.3997802734375 436.600830078125 235.94967651367188 430.90081787109375Q214.49957275390625 425.2008056640625 199.5994873046875 413.5507507324219Q184.69940185546875 401.90069580078125 178.49932861328125 382.90057373046875H62.0003662109375Q68.70037841796875 422.8004150390625 89.80035400390625 451.30029296875Q110.90032958984375 479.8001708984375 142.05026245117188 498.10009765625Q173.2001953125 516.4000244140625 209.90008544921875 525.2999877929688Q246.5999755859375 534.199951171875 284.49981689453125 534.199951171875Q361.09979248046875 534.199951171875 408.89971923828125 504.2999267578125Q456.69964599609375 474.39990234375 479.3495788574219 418.59991455078125Q501.99951171875 362.7999267578125 501.99951171875 284.4000244140625V0H403.400634765625L399.90057373046875 67.5999755859375Q376.70062255859375 34.90008544921875 345.2506408691406 18.90008544921875Q313.8006591796875 2.90008544921875 283.1005859375 -1.849945068359375Q252.4005126953125 -6.5999755859375 229.10028076171875 -6.5999755859375ZM249.09979248046875 86.3992919921875Q291.60009765625 86.3992919921875 324.20025634765625 101.6993408203125Q356.8004150390625 116.9993896484375 375.4504699707031 145.09954833984375Q394.10052490234375 173.19970703125 394.10052490234375 211.10003662109375V230.50030517578125H261.7999267578125Q245.599853515625 230.50030517578125 226.74972534179688 228.35031127929688Q207.89959716796875 226.2003173828125 191.699462890625 219.45028686523438Q175.49932861328125 212.70025634765625 165.24923706054688 198.75015258789062Q154.9991455078125 184.800048828125 154.9991455078125 160.1998291015625Q154.9991455078125 134.9996337890625 168.0992431640625 118.84951782226562Q181.1993408203125 102.69940185546875 202.94949340820312 94.54934692382812Q224.69964599609375 86.3992919921875 249.09979248046875 86.3992919921875Z"/><path transform="translate(1256 0)" d="M289.400146484375 -239.599853515625Q231.2001953125 -239.599853515625 174.65023803710938 -223.04983520507812Q118.10028076171875 -206.49981689453125 70.10040283203125 -166.5997314453125L112.2001953125 -76.8006591796875Q147.600341796875 -104.2008056640625 191.25033569335938 -121.15084838867188Q234.90032958984375 -138.10089111328125 287.50030517578125 -138.10089111328125Q367.400390625 -138.10089111328125 401.0504455566406 -95.70068359375Q434.70050048828125 -53.30047607421875 434.70050048828125 16.9996337890625V62.30035400390625Q417.00048828125 37.70025634765625 390.5504455566406 22.150177001953125Q364.10040283203125 6.60009765625 333.3503112792969 -0.699951171875Q302.6002197265625 -8 270.60009765625 -8Q193.50006103515625 -8 148.05007934570312 23.449981689453125Q102.60009765625 54.89996337890625 82.85012817382812 110.199951171875Q63.10015869140625 165.49993896484375 63.10015869140625 236.89996337890625V527H175.69903564453125V262.1998291015625Q175.69903564453125 231.599609375 179.59906005859375 201.2994384765625Q183.49908447265625 170.999267578125 195.69915771484375 146.54916381835938Q207.89923095703125 122.09906005859375 232.1993408203125 107.44900512695312Q256.49945068359375 92.7989501953125 297.29962158203125 92.7989501953125Q349.7998046875 92.7989501953125 379.3500061035156 118.54904174804688Q408.90020751953125 144.29913330078125 420.9503479003906 185.89935302734375Q433.00048828125 227.49957275390625 433.00048828125 275.49993896484375V527H545.599365234375V37.7984619140625Q545.599365234375 -26.70123291015625 530.9993286132812 -78.05093383789062Q516.3992919921875 -129.400634765625 485.6493225097656 -165.400390625Q454.89935302734375 -201.400146484375 406.3995361328125 -220.5Q357.89971923828125 -239.599853515625 289.400146484375 -239.599853515625Z"/><path transform="translate(1848 0)" d="M283.09991455078125 0Q220.10003662109375 0 180.75015258789062 17.10003662109375Q141.4002685546875 34.2000732421875 122.95034790039062 72.35006713867188Q104.50042724609375 110.50006103515625 104.50042724609375 172.9998779296875V427.10101318359375H22.4002685546875V527H104.50042724609375V676.2003173828125H217.09930419921875V527H344.89984130859375V427.10101318359375H217.09930419921875V187.399658203125Q217.09930419921875 143.89923095703125 232.699462890625 122.04910278320312Q248.29962158203125 100.198974609375 299.5999755859375 100.198974609375H340.9998779296875V0Z"/><path transform="translate(2201 0)" d="M61.000244140625 0V707.2999877929688H173.59912109375V0Z"/><path transform="translate(2421 0)" d="M229.10028076171875 -6.5999755859375Q192.80029296875 -6.5999755859375 159.45028686523438 3.050018310546875Q126.10028076171875 12.70001220703125 99.9002685546875 32.350006103515625Q73.70025634765625 52 58.350250244140625 81.64999389648438Q43.000244140625 111.29998779296875 43.000244140625 150.89996337890625Q43.000244140625 200.3997802734375 62.20013427734375 232.29974365234375Q81.4000244140625 264.19970703125 114.04983520507812 281.5997314453125Q146.69964599609375 298.999755859375 189.24942016601562 305.9497985839844Q231.7991943359375 312.89984130859375 277.7989501953125 312.89984130859375H393.50054931640625Q393.50054931640625 350.10015869140625 382.0505065917969 377.70037841796875Q370.6004638671875 405.30059814453125 346.0503234863281 420.9507141113281Q321.50018310546875 436.600830078125 282.09991455078125 436.600830078125Q257.3997802734375 436.600830078125 235.94967651367188 430.90081787109375Q214.49957275390625 425.2008056640625 199.5994873046875 413.5507507324219Q184.69940185546875 401.90069580078125 178.49932861328125 382.90057373046875H62.0003662109375Q68.70037841796875 422.8004150390625 89.80035400390625 451.30029296875Q110.90032958984375 479.8001708984375 142.05026245117188 498.10009765625Q173.2001953125 516.4000244140625 209.90008544921875 525.2999877929688Q246.5999755859375 534.199951171875 284.49981689453125 534.199951171875Q361.09979248046875 534.199951171875 408.89971923828125 504.2999267578125Q456.69964599609375 474.39990234375 479.3495788574219 418.59991455078125Q501.99951171875 362.7999267578125 501.99951171875 284.4000244140625V0H403.400634765625L399.90057373046875 67.5999755859375Q376.70062255859375 34.90008544921875 345.2506408691406 18.90008544921875Q313.8006591796875 2.90008544921875 283.1005859375 -1.849945068359375Q252.4005126953125 -6.5999755859375 229.10028076171875 -6.5999755859375ZM249.09979248046875 86.3992919921875Q291.60009765625 86.3992919921875 324.20025634765625 101.6993408203125Q356.8004150390625 116.9993896484375 375.4504699707031 145.09954833984375Q394.10052490234375 173.19970703125 394.10052490234375 211.10003662109375V230.50030517578125H261.7999267578125Q245.599853515625 230.50030517578125 226.74972534179688 228.35031127929688Q207.89959716796875 226.2003173828125 191.699462890625 219.45028686523438Q175.49932861328125 212.70025634765625 165.24923706054688 198.75015258789062Q154.9991455078125 184.800048828125 154.9991455078125 160.1998291015625Q154.9991455078125 134.9996337890625 168.0992431640625 118.84951782226562Q181.1993408203125 102.69940185546875 202.94949340820312 94.54934692382812Q224.69964599609375 86.3992919921875 249.09979248046875 86.3992919921875Z"/><path transform="translate(2967 0)" d="M260.199951171875 -6.5999755859375Q223.29998779296875 -6.5999755859375 185.75003051757812 1.0Q148.2000732421875 8.5999755859375 115.80010986328125 26.7999267578125Q83.400146484375 44.9998779296875 61.50018310546875 76.24978637695312Q39.6002197265625 107.49969482421875 33.000244140625 154.09954833984375H146.89910888671875Q155.09918212890625 131.29937744140625 173.99932861328125 116.74929809570312Q192.89947509765625 102.19921875 217.4996337890625 95.64920043945312Q242.09979248046875 89.09918212890625 265.69989013671875 89.09918212890625Q280.49993896484375 89.09918212890625 298.0500793457031 91.09918212890625Q315.6002197265625 93.09918212890625 331.3503723144531 99.69921875Q347.10052490234375 106.29925537109375 356.900634765625 118.599365234375Q366.70074462890625 130.89947509765625 366.70074462890625 151.89971923828125Q366.70074462890625 169.49981689453125 357.8507385253906 180.39990234375Q349.000732421875 191.29998779296875 333.4507141113281 198.300048828125Q317.90069580078125 205.30010986328125 296.10064697265625 209.30010986328125Q270.30047607421875 216.10015869140625 243.35031127929688 220.3001708984375Q216.400146484375 224.50018310546875 190.29998779296875 230.6002197265625Q153.4000244140625 240.30023193359375 120.90008544921875 256.80023193359375Q88.400146484375 273.30023193359375 68.55020141601562 302.5502014160156Q48.70025634765625 331.8001708984375 48.70025634765625 379.60009765625Q48.70025634765625 420.70001220703125 65.55020141601562 450.0999755859375Q82.400146484375 479.49993896484375 111.90008544921875 498.1499328613281Q141.4000244140625 516.7999267578125 178.79998779296875 525.6499328613281Q216.199951171875 534.4999389648438 257 534.4999389648438Q310.199951171875 534.4999389648438 353.79986572265625 517.5499572753906Q397.3997802734375 500.5999755859375 426.0497131347656 466.5500793457031Q454.69964599609375 432.50018310546875 460.599609375 380.50042724609375H354.000732421875Q348.50067138671875 406.2005615234375 321.5505065917969 422.50067138671875Q294.600341796875 438.80078125 253.50006103515625 438.80078125Q239.29998779296875 438.80078125 222.74984741210938 436.4507751464844Q206.19970703125 434.10076904296875 191.64956665039062 427.6007080078125Q177.09942626953125 421.10064697265625 167.64932250976562 409.4505310058594Q158.19921875 397.8004150390625 158.19921875 379.2001953125Q158.19921875 362.5999755859375 167.14932250976562 350.4498596191406Q176.09942626953125 338.29974365234375 193.04959106445312 330.6496887207031Q209.999755859375 322.9996337890625 232.49993896484375 317.89959716796875Q266 310.89959716796875 304.400146484375 303.8495788574219Q342.80029296875 296.799560546875 368.6002197265625 289.09954833984375Q400.90020751953125 279.99951171875 425.5500793457031 263.199462890625Q450.199951171875 246.3994140625 463.99981689453125 220.199462890625Q477.7996826171875 193.99951171875 477.7996826171875 155.29974365234375Q477.7996826171875 107.09979248046875 458.5497131347656 75.74984741210938Q439.29974365234375 44.39990234375 407.2497863769531 26.49993896484375Q375.1998291015625 8.5999755859375 336.6498718261719 1.0Q298.09991455078125 -6.5999755859375 260.199951171875 -6.5999755859375Z"/></g></svg>